<svg xmlns="http://www.w3.org/2000/svg" version="1.1" xmlns:xlink="http://www.w3.org/1999/xlink" xmlns:svgjs="http://svgjs.dev/svgjs" width="2000" height="1414" viewBox="0 0 2000 1414"><g transform="matrix(1,0,0,1,-1.2121212121212466,0)"><svg viewBox="0 0 396 280" data-background-color="#ffffff" preserveAspectRatio="xMidYMid meet" height="1414" width="2000" xmlns="http://www.w3.org/2000/svg" xmlns:xlink="http://www.w3.org/1999/xlink"><g id="tight-bounds" transform="matrix(1,0,0,1,0.2400000000000091,0)"><svg viewBox="0 0 395.52 280" height="280" width="395.52"><g><svg viewBox="0 0 395.52 280" height="280" width="395.52"><g><svg viewBox="0 0 395.52 280" height="280" width="395.52"><g><svg viewBox="0 0 395.52 280" height="280" width="395.52" id="textblock"><g><svg viewBox="0 0 395.52 280" height="280" width="395.52"><g transform="matrix(1,0,0,1,131.76336708925555,74.00336708925556)"><svg viewBox="0 0 131.99326582148888 131.99326582148888" height="131.99326582148888" width="131.99326582148888"><g><circle r="66" cx="65.99663291074444" cy="65.99663291074444" fill="#61777f" data-fill-palette-color="accent"></circle></g></svg></g><path d="M70.558 188.95V188.95C71.198 190.832 72.313 192.296 73.903 193.344 75.493 194.392 77.42 194.531 79.683 193.762V193.762C80.7 193.416 81.486 192.872 82.042 192.13 82.599 191.388 82.935 190.543 83.053 189.595 83.17 188.648 83.211 187.641 83.175 186.575 83.139 185.51 83.122 184.437 83.124 183.359 83.126 182.28 83.217 181.256 83.398 180.287 83.58 179.318 84.005 178.442 84.676 177.661 85.346 176.88 86.266 176.291 87.436 175.893V175.893C89.47 175.202 91.374 175.335 93.146 176.292 94.918 177.25 96.202 178.898 96.997 181.238 97.793 183.577 98.286 185.905 98.479 188.223V188.223L93.854 190.263 93.302 189.642 96.185 188.236C96.944 185.879 97.043 183.874 96.481 182.222 95.919 180.569 94.946 179.354 93.561 178.576 92.176 177.799 90.479 177.752 88.47 178.435V178.435C87.301 178.833 86.533 179.619 86.166 180.793 85.799 181.967 85.652 183.286 85.725 184.751 85.797 186.216 85.819 187.698 85.789 189.197 85.76 190.696 85.333 192.11 84.509 193.44 83.685 194.77 82.357 195.746 80.526 196.369V196.369C78.06 197.207 75.905 196.961 74.063 195.63 72.22 194.299 70.811 192.197 69.834 189.324 68.857 186.451 68.785 183.695 69.619 181.057V181.057L73.675 179.721 74.112 180.381 71.964 181.196C71.231 182.211 70.705 183.439 70.387 184.881 70.069 186.322 70.126 187.679 70.558 188.95ZM104.219 241.158L122.414 222.496 117.453 217.659 113.279 221.016 112.956 220.251 116.732 216.956 116.703 216.928 116.986 216.753 117.352 216.435 117.382 216.52 117.41 216.491 130.505 229.259 126.83 233.778 126.028 233.447 129.279 229.189 124.231 224.268 105.642 243.334 107.635 245.502C107.616 245.521 107.466 245.656 107.185 245.907V245.907L101.388 240.311C101.556 240.138 101.697 240.013 101.81 239.935V239.935L103.507 241.196C103.718 241.364 103.955 241.351 104.219 241.158ZM173.93 250.071L181.486 252.219C181.479 252.245 181.436 252.442 181.357 252.81V252.81L179.095 252.365 165.837 267.145 163.404 275.542 166.184 276.515C166.176 276.541 166.107 276.731 165.977 277.084V277.084L158.227 274.881C158.294 274.649 158.359 274.472 158.422 274.35V274.35L160.513 274.662C160.778 274.711 160.982 274.588 161.123 274.294V274.294L163.399 266.439 159.615 246.93C159.534 246.823 159.45 246.728 159.361 246.647V246.647L157.781 246.021C157.8 245.859 157.843 245.662 157.911 245.429V245.429L165.738 247.656C165.731 247.681 165.687 247.879 165.609 248.247V248.247L162.357 247.599 165.602 266.364 177.434 252.597C177.524 252.287 177.456 252.086 177.232 251.993V251.993L173.8 250.663C173.819 250.501 173.863 250.303 173.93 250.071ZM213.935 252.372L221.86 250.711C221.865 250.737 221.919 250.932 222.02 251.295V251.295L219.346 252.088 224.662 278.098 235.556 275.871 235.054 269.395 235.845 269.439 236.664 276.467 227.508 278.339 219.582 280 219.509 279.439 221.505 278.744C221.763 278.663 221.885 278.46 221.874 278.134V278.134L216.766 253.15C216.649 252.845 216.456 252.706 216.188 252.733V252.733L214.095 252.956ZM262.799 233.591L260.977 234.731 260.632 234.233 274.128 223.502 274.172 223.621 278.117 227.741 277.687 228.495 273.873 224.734 265.296 231.554 273.395 241.739 280.931 235.746C281.053 235.684 281.126 235.582 281.152 235.442 281.177 235.301 281.14 235.168 281.04 235.042V235.042L279.436 232.766 279.89 232.302 284.178 237.694C284.157 237.71 284.007 237.846 283.73 238.101V238.101L281.874 236.026 273.896 242.369 281.844 252.365 291.272 244.868 287.86 239.347 288.584 239.028 292.499 244.922 284.49 251.29 278.177 256.362 277.858 255.895 279.322 254.371C279.515 254.182 279.533 253.946 279.374 253.66V253.66L263.503 233.7C263.26 233.482 263.026 233.445 262.799 233.591ZM294.464 196.775L297.574 189.343C297.599 189.353 297.79 189.42 298.146 189.542V189.542L297.299 192.158 311.316 198.107C315.618 199.933 318.793 200.391 320.842 199.481V199.481C321.839 199.057 322.624 198.53 323.199 197.899 323.773 197.267 324.273 196.451 324.698 195.449 325.123 194.448 325.372 193.482 325.447 192.551 325.521 191.619 325.362 190.618 324.971 189.548V189.548C324.18 187.287 321.695 185.269 317.517 183.496V183.496L304.093 177.799C303.75 177.712 303.514 177.787 303.385 178.023V178.023L301.992 180.583C301.833 180.545 301.643 180.479 301.42 180.384V180.384L304.373 173.323C304.398 173.333 304.589 173.4 304.945 173.522V173.522L303.973 176.741 317.916 182.659C325.432 185.849 327.999 190.249 325.617 195.861V195.861C325.04 197.221 324.391 198.354 323.672 199.259 322.952 200.164 322.004 200.936 320.829 201.575V201.575C318.421 202.917 314.906 202.607 310.283 200.645V200.645L296.71 194.884C296.372 194.857 296.148 194.937 296.039 195.125V195.125L295.036 196.974C294.877 196.936 294.686 196.87 294.464 196.775Z" fill="#61777f" data-fill-palette-color="primary"></path><path d="M86.121 104.804V104.804C86.758 102.928 86.766 101.091 86.143 99.291 85.528 97.493 84.088 96.21 81.825 95.441V95.441C80.808 95.095 79.856 95.048 78.969 95.3 78.076 95.549 77.294 96.014 76.623 96.694 75.953 97.373 75.307 98.147 74.686 99.014 74.067 99.874 73.428 100.731 72.77 101.585 72.111 102.439 71.414 103.195 70.68 103.853 69.945 104.512 69.079 104.944 68.08 105.15 67.072 105.361 65.983 105.268 64.814 104.87V104.87C62.779 104.179 61.354 102.918 60.536 101.087 59.715 99.248 59.7 97.161 60.493 94.828 61.288 92.489 62.315 90.345 63.572 88.397V88.397L68.473 89.595 68.535 90.414 65.402 89.774C63.364 91.181 62.064 92.71 61.502 94.363 60.943 96.009 60.975 97.563 61.599 99.023 62.217 100.481 63.53 101.551 65.539 102.234V102.234C66.709 102.632 67.797 102.477 68.803 101.769 69.803 101.059 70.721 100.102 71.556 98.897 72.389 97.698 73.274 96.513 74.211 95.342 75.147 94.171 76.347 93.313 77.809 92.767 79.273 92.215 80.917 92.249 82.741 92.869V92.869C85.208 93.708 86.764 95.212 87.41 97.381 88.059 99.559 87.897 102.082 86.923 104.949 85.946 107.822 84.325 110.047 82.058 111.624V111.624L78.038 110.215 78.093 109.426 80.293 110.088C81.484 109.734 82.645 109.083 83.776 108.134 84.907 107.185 85.689 106.075 86.121 104.804ZM114.363 59.124L96.195 40.491 91.241 45.321 94.485 49.571 93.712 49.875 90.52 46.024 90.492 46.052 90.324 45.765 90.016 45.391 90.101 45.364 90.073 45.335 103.146 32.588 107.564 36.368 107.212 37.162 103.046 33.811 98.005 38.726 116.567 57.763 118.785 55.825C118.804 55.844 118.935 55.998 119.178 56.286V56.286L113.445 61.932C113.276 61.759 113.154 61.615 113.08 61.5V61.5L114.383 59.836C114.556 59.629 114.55 59.392 114.363 59.124ZM161.801 2.99L169.316 0.771C169.324 0.796 169.393 0.986 169.523 1.34V1.34L167.383 2.17 164.082 21.717 166.512 30.104 169.382 29.44C169.389 29.466 169.432 29.663 169.511 30.032V30.032L161.793 32.31C161.726 32.078 161.687 31.893 161.675 31.757V31.757L163.599 30.906C163.849 30.805 163.956 30.593 163.917 30.268V30.268L161.644 22.423 148.044 7.983C147.919 7.935 147.797 7.901 147.679 7.879V7.879L146.009 8.195C145.938 8.048 145.869 7.858 145.802 7.626V7.626L153.597 5.325C153.604 5.351 153.673 5.541 153.804 5.895V5.895L150.709 7.085 163.466 21.183 166.103 3.253C166.014 2.944 165.849 2.81 165.609 2.851V2.851L162.008 3.559C161.938 3.412 161.869 3.222 161.801 2.99ZM219.113 0L227.044 1.581C227.039 1.607 227.012 1.807 226.963 2.181V2.181L224.191 1.861 218.88 27.831 229.754 30.055 231.832 23.911 232.542 24.262 230.54 31.038 221.403 29.169 213.471 27.588 213.624 27.044 215.723 27.185C215.991 27.213 216.184 27.074 216.301 26.769V26.769L221.402 1.825C221.414 1.499 221.291 1.295 221.033 1.215V1.215L219.031 0.6ZM282.214 27.168L280.701 25.656 281.109 25.208 294.579 35.923 294.472 35.992 291.352 40.756 290.521 40.507 293.321 35.952 284.761 29.143 276.673 39.311 284.201 45.298C284.289 45.403 284.405 45.452 284.547 45.445 284.69 45.438 284.811 45.372 284.911 45.246V45.246L286.768 43.171 287.308 43.51 283.026 48.894C283.005 48.877 282.842 48.764 282.536 48.555V48.555L284.14 46.28 276.172 39.941 268.235 49.92 277.646 57.405 282.251 52.845 282.725 53.479 277.869 58.613 269.877 52.255 263.523 47.253 263.905 46.836 265.713 47.913C265.939 48.06 266.174 48.023 266.417 47.804V47.804L282.266 27.879C282.425 27.593 282.407 27.356 282.214 27.168ZM325.647 76.906L328.827 84.298C328.802 84.309 328.622 84.4 328.286 84.571V84.571L326.994 82.144 312.994 88.083C308.698 89.905 306.168 91.868 305.405 93.971V93.971C305.014 94.975 304.846 95.904 304.901 96.755 304.956 97.607 305.196 98.534 305.621 99.535 306.046 100.537 306.566 101.384 307.181 102.079 307.799 102.779 308.629 103.361 309.671 103.823V103.823C311.841 104.828 315.012 104.446 319.184 102.676V102.676L332.591 96.989C332.891 96.803 333.001 96.582 332.921 96.324V96.324L332.048 93.544C332.186 93.456 332.366 93.365 332.589 93.271V93.271L335.611 100.292C335.586 100.303 335.406 100.394 335.07 100.565V100.565L333.435 97.638 319.509 103.545C312.005 106.728 307.064 105.516 304.686 99.91V99.91C304.109 98.55 303.745 97.297 303.594 96.15 303.446 95.01 303.551 93.795 303.908 92.505V92.505C304.61 89.845 307.27 87.535 311.887 85.576V85.576L325.442 79.827C325.697 79.602 325.795 79.385 325.735 79.177V79.177L325.107 77.179C325.245 77.092 325.425 77.001 325.647 76.906Z" fill="#61777f" data-fill-palette-color="primary"></path><path d="M60.072 143.873C60.072 137.915 64.901 133.086 70.859 133.086 76.817 133.086 81.647 137.915 81.647 143.873 81.647 149.831 76.817 154.661 70.859 154.661 64.901 154.661 60.072 149.831 60.072 143.873ZM313.873 143.873C313.873 137.915 318.703 133.086 324.661 133.086 330.619 133.086 335.448 137.915 335.448 143.873 335.448 149.831 330.619 154.661 324.661 154.661 318.703 154.661 313.873 149.831 313.873 143.873Z" fill="#61777f" data-fill-palette-color="primary"></path></svg></g></svg></g></svg></g></svg></g><defs></defs></svg><rect width="395.52" height="280" fill="none" stroke="none" visibility="hidden"></rect></g></svg></g></svg>